<!-- created by svgstack.com | Attribution is required. --><svg width="60" height="55" viewBox="0 0 60 55" fill="none" xmlns="http://www.w3.org/2000/svg"><g clip-path="url(#clip0_5_391)"><path d="M37.5 13.75H15V3C15 1.34 16.34 0 18 0H37.5V13.75Z" fill="#1DA366"/><path d="M60 13.75H37.5V0H57C58.66 0 60 1.34 60 3V13.75Z" fill="#4DB47E"/><path d="M15 27.5V41.25V52C15 53.66 16.34 55 17.99 55H57.02C58.67 55 60.01 53.66 60.01 52V41.25V27.5H15Z" fill="#195D38"/><path d="M37.5 13.75H15V27.5H37.5V13.75Z" fill="#0A7D41"/><path d="M60 13.75H37.5V27.5H60V13.75Z" fill="#1DA366"/><path d="M60 27.5H37.5V41.25H60V27.5Z" fill="#0A7D41"/><g filter="url(#filter0_d_5_391)"><path d="M29 42.5H1C0.45 42.5 0 42.05 0 41.5V13.5C0 12.95 0.45 12.5 1 12.5H29C29.55 12.5 30 12.95 30 13.5V41.5C30 42.05 29.55 42.5 29 42.5Z" fill="url(#paint0_linear_5_391)"/></g><path d="M19.08 36L16.83 32.79L14.99 30.2L10.83 36H6.53003L12.7 27.43L6.83002 19H11.09L13.37 22.26L14.99 24.67L16.6 22.26L18.85 19H23.11L17.24 27.43L23.45 36H19.08Z" fill="white"/></g><defs><filter id="filter0_d_5_391" x="-2" y="8.5" width="38" height="38" filterUnits="userSpaceOnUse" color-interpolation-filters="sRGB"><feFlood flood-opacity="0" result="BackgroundImageFix"/><feColorMatrix in="SourceAlpha" type="matrix" values="0 0 0 0 0 0 0 0 0 0 0 0 0 0 0 0 0 0 127 0" result="hardAlpha"/><feOffset dx="2"/><feGaussianBlur stdDeviation="2"/><feComposite in2="hardAlpha" operator="out"/><feColorMatrix type="matrix" values="0 0 0 0 0 0 0 0 0 0 0 0 0 0 0 0 0 0 0.25 0"/><feBlend mode="normal" in2="BackgroundImageFix" result="effect1_dropShadow_5_391"/><feBlend mode="normal" in="SourceGraphic" in2="effect1_dropShadow_5_391" result="shape"/></filter><linearGradient id="paint0_linear_5_391" x1="-15.7259" y1="4.3409" x2="29.8911" y2="38.7239" gradientUnits="userSpaceOnUse"><stop offset="0.1123" stop-color="#17874E"/><stop offset="0.8823" stop-color="#0F6B35"/></linearGradient><clipPath id="clip0_5_391"><rect width="60.01" height="55" fill="white"/></clipPath></defs></svg> 