<!-- created by svgstack.com | Attribution is required. --><svg width="201" height="208" viewBox="0 0 201 208" fill="none" xmlns="http://www.w3.org/2000/svg"><g clip-path="url(#clip0_104_426)"><path d="M117.815 202.632C112.568 209.239 101.93 205.619 101.803 197.182L99.9548 73.7852H182.927C197.955 73.7852 206.337 91.1431 196.992 102.913L117.815 202.632Z" fill="url(#paint0_linear_104_426)"/><path d="M117.815 202.632C112.568 209.239 101.93 205.619 101.803 197.182L99.9548 73.7852H182.927C197.955 73.7852 206.337 91.1431 196.992 102.913L117.815 202.632Z" fill="url(#paint1_linear_104_426)" fill-opacity="0.2"/><path d="M84.0703 4.07565C89.3171 -2.53242 99.9556 1.08833 100.082 9.52514L100.892 132.922H18.9586C3.92971 132.922 -4.45218 115.564 4.89324 103.794L84.0703 4.07565Z" fill="#3ECF8E"/></g><defs><linearGradient id="paint0_linear_104_426" x1="99.9548" y1="101.145" x2="173.697" y2="132.073" gradientUnits="userSpaceOnUse"><stop stop-color="#249361"/><stop offset="1" stop-color="#3ECF8E"/></linearGradient><linearGradient id="paint1_linear_104_426" x1="67.2613" y1="56.382" x2="100.892" y2="119.69" gradientUnits="userSpaceOnUse"><stop/><stop offset="1" stop-opacity="0"/></linearGradient><clipPath id="clip0_104_426"><rect width="200" height="207.339" fill="white" transform="translate(0.920166 0.275391)"/></clipPath></defs></svg> 